<mxfile host="app.diagrams.net" modified="2023-10-24T03:36:39.544Z" agent="Mozilla/5.0 (Windows NT 6.1; Win64; x64) AppleWebKit/537.36 (KHTML, like Gecko) Chrome/95.0.4638.69 Safari/537.36" etag="bixUY2Sz3jagE8RyhCwI" version="22.0.6" type="github">
  <diagram id="KUYNhQP6ns5_chog6xBH" name="第 1 页">
    <mxGraphModel dx="1434" dy="765" grid="1" gridSize="10" guides="1" tooltips="1" connect="1" arrows="1" fold="1" page="1" pageScale="1" pageWidth="827" pageHeight="1169" background="#F4F1DE" math="0" shadow="0">
      <root>
        <mxCell id="0" />
        <mxCell id="1" parent="0" />
        <mxCell id="7F3qD5umFavH5z8T37FG-1" value="" style="whiteSpace=wrap;html=1;aspect=fixed;strokeWidth=8;rounded=1;fillColor=#FAE5C7;strokeColor=#0F8B8D;fontColor=#143642;labelBackgroundColor=none;" parent="1" vertex="1">
          <mxGeometry x="220" y="220" width="150" height="150" as="geometry" />
        </mxCell>
        <mxCell id="7F3qD5umFavH5z8T37FG-2" value="AIC8800" style="text;html=1;strokeColor=none;fillColor=none;align=center;verticalAlign=middle;whiteSpace=wrap;rounded=0;sketch=0;fontSize=33;shadow=0;glass=0;fontColor=#143642;labelBackgroundColor=none;fontStyle=1" parent="1" vertex="1">
          <mxGeometry x="220" y="225" width="150" height="50" as="geometry" />
        </mxCell>
        <mxCell id="7F3qD5umFavH5z8T37FG-3" value="H618" style="text;strokeColor=none;fillColor=none;align=center;verticalAlign=middle;whiteSpace=wrap;rounded=0;sketch=0;fontSize=52;html=1;spacing=2;spacingRight=0;spacingTop=0;fontColor=#143642;labelBackgroundColor=none;" parent="1" vertex="1">
          <mxGeometry x="219" y="307" width="150" height="60" as="geometry" />
        </mxCell>
        <mxCell id="m-lJc65zLOLzHvcs8ghN-1" value="D80" style="text;html=1;strokeColor=none;fillColor=none;align=center;verticalAlign=middle;whiteSpace=wrap;rounded=0;sketch=0;fontSize=33;shadow=0;glass=0;fontColor=#143642;labelBackgroundColor=none;" vertex="1" parent="1">
          <mxGeometry x="220" y="265" width="150" height="50" as="geometry" />
        </mxCell>
      </root>
    </mxGraphModel>
  </diagram>
</mxfile>
